<svg width="24" height="26" viewBox="0 0 66 69" fill="none" xmlns="http://www.w3.org/2000/svg">
<mask id="mask0_1_349" style="mask-type:luminance" maskUnits="userSpaceOnUse" x="0" y="0" width="66" height="69">
<path d="M0 0.363213H66V68.2068H0V0.363213Z" fill="white"/>
</mask>
<g mask="url(#mask0_1_349)">
<path d="M48.6343 33.9979L38.3147 46.9128L34.8965 44.0637L41.1463 36.1401C39.118 34.8876 38.9317 34.4987 37.0855 32.9817L30.5303 28.3092C30.5303 28.3092 9.48548 55.045 8.91193 54.9668C14.3855 61.5768 23.1538 66.4104 32.3784 66.9535C46.4884 67.7843 59.3082 59.4687 64.2749 46.2586L64.3811 45.8866L48.6343 33.9979Z" fill="#10BBB6"/>
<path d="M6.75245 42.7216C5.81641 39.5964 5.4395 36.3547 5.63188 33.0864C6.54171 17.6315 19.8556 5.79802 35.3108 6.70784C38.5467 6.89843 41.7135 7.65143 44.7234 8.94587C47.3344 10.3237 49.8679 12.2014 52.2653 14.5326L38.3271 32.0656L28.5991 24.3577L33.5841 17.9678L29.6765 14.8222L6.84078 43.0168L6.75245 42.7216ZM59.4998 14.3042C53.341 6.63099 44.0815 1.55452 35.2687 1.0357C17.0612 -0.0361938 1.37609 13.9052 0.304198 32.1133C-0.120234 39.3239 1.76988 46.3147 5.77036 52.3302C8.5213 56.6758 12.2924 60.3702 16.6776 63.0162C21.2107 65.7514 26.4128 67.3625 31.7215 67.675C46.1925 68.5271 60.4126 59.2638 65.534 45.6494L65.5971 45.4803L65.4601 45.3608C65.2741 45.2073 49.5377 32.9053 49.5634 32.8794L46.3446 36.9032C46.3446 36.9032 59.4938 47.1121 59.4726 47.152C54.2546 56.996 42.9827 63.4107 32.0106 62.765C23.9708 62.2914 16.5055 58.3212 11.5287 51.8718C10.517 50.711 9.52617 48.7715 9.48438 48.6894L9.43686 48.5962L25.3822 28.4268L35.2273 36.0531L31.1986 41.1468C31.1966 41.1519 35.0173 44.1605 35.0214 44.1652" fill="#106E88"/>
</g>
</svg>
